HIERARCHY
ROOT Hips
{
  OFFSET -24.032 21.845 -214.982
  CHANNELS 6 Xposition Yposition Zposition Zrotation Xrotation Yrotation
  JOINT LeftUpLeg
  {
    OFFSET 7.314 -6.234 2.463
    CHANNELS 6 Xposition Yposition Zposition Zrotation Xrotation Yrotation
    JOINT LeftLeg
    {
      OFFSET -0.000 -44.280 0.000
      CHANNELS 6 Xposition Yposition Zposition Zrotation Xrotation Yrotation
      JOINT LeftFoot
      {
        OFFSET -0.000 -40.659 -0.000
        CHANNELS 6 Xposition Yposition Zposition Zrotation Xrotation Yrotation
        End Site
        {
          OFFSET 0.000 -7.182 4.146
        }
      }
    }
  }
  JOINT RightUpLeg
  {
    OFFSET -7.362 -6.046 3.148
    CHANNELS 6 Xposition Yposition Zposition Zrotation Xrotation Yrotation
    JOINT RightLeg
    {
      OFFSET -0.000 -43.770 0.000
      CHANNELS 6 Xposition Yposition Zposition Zrotation Xrotation Yrotation
      JOINT RightFoot
      {
        OFFSET -0.000 -43.264 -0.000
        CHANNELS 6 Xposition Yposition Zposition Zrotation Xrotation Yrotation
        End Site
        {
          OFFSET 0.000 -7.256 4.190
        }
      }
    }
  }
  JOINT Spine
  {
    OFFSET 0.000 5.713 -5.713
    CHANNELS 6 Xposition Yposition Zposition Zrotation Xrotation Yrotation
    JOINT LeftShoulder
    {
      OFFSET -0.000 37.282 0.000
      CHANNELS 6 Xposition Yposition Zposition Zrotation Xrotation Yrotation
      JOINT LeftArm
      {
        OFFSET 16.571 0.000 -0.000
        CHANNELS 6 Xposition Yposition Zposition Zrotation Xrotation Yrotation
        JOINT LeftForeArm
        {
          OFFSET 20.793 0.000 0.000
          CHANNELS 6 Xposition Yposition Zposition Zrotation Xrotation Yrotation
          JOINT LeftHand
          {
            OFFSET 22.245 -0.000 -0.000
            CHANNELS 6 Xposition Yposition Zposition Zrotation Xrotation Yrotation
            JOINT LeftHandThumb1
            {
            OFFSET 4.970 -0.620 3.390
            CHANNELS 6 Xposition Yposition Zposition Zrotation Xrotation Yrotation
              JOINT LeftHandThumb2
              {
              OFFSET 2.150 -0.000 0.000
              CHANNELS 6 Xposition Yposition Zposition Zrotation Xrotation Yrotation
                JOINT LeftHandThumb3
                {
                OFFSET 2.200 -0.000 0.000
                CHANNELS 6 Xposition Yposition Zposition Zrotation Xrotation Yrotation
                  JOINT LeftHandThumb4
                  {
                  OFFSET 1.700 -0.000 0.000
                  CHANNELS 6 Xposition Yposition Zposition Zrotation Xrotation Yrotation
                  }
                }
              }
            }
            JOINT LeftHandIndex1
            {
            OFFSET 8.730 0.680 2.070
            CHANNELS 6 Xposition Yposition Zposition Zrotation Xrotation Yrotation
              JOINT LeftHandIndex2
              {
              OFFSET 2.670 -0.000 0.000
              CHANNELS 6 Xposition Yposition Zposition Zrotation Xrotation Yrotation
                JOINT LeftHandIndex3
                {
                OFFSET 2.130 -0.000 0.000
                CHANNELS 6 Xposition Yposition Zposition Zrotation Xrotation Yrotation
                  JOINT LeftHandIndex4
                  {
                  OFFSET 1.800 -0.000 0.000
                  CHANNELS 6 Xposition Yposition Zposition Zrotation Xrotation Yrotation
                  }
                }
              }
            }
            JOINT LeftHandMiddle1
            {
            OFFSET 9.220 0.670 0.550
            CHANNELS 6 Xposition Yposition Zposition Zrotation Xrotation Yrotation
              JOINT LeftHandMiddle2
              {
              OFFSET 2.660 -0.000 0.000
              CHANNELS 6 Xposition Yposition Zposition Zrotation Xrotation Yrotation
                JOINT LeftHandMiddle3
                {
                OFFSET 2.280 -0.000 0.000
                CHANNELS 6 Xposition Yposition Zposition Zrotation Xrotation Yrotation
                  JOINT LeftHandMiddle4
                  {
                  OFFSET 1.500 -0.000 0.000
                  CHANNELS 6 Xposition Yposition Zposition Zrotation Xrotation Yrotation
                  }
                }
              }
            }
            JOINT LeftHandRing1
            {
            OFFSET 9.250 0.670 -1.130
            CHANNELS 6 Xposition Yposition Zposition Zrotation Xrotation Yrotation
              JOINT LeftHandRing2
              {
              OFFSET 2.470 -0.000 0.000
              CHANNELS 6 Xposition Yposition Zposition Zrotation Xrotation Yrotation
                JOINT LeftHandRing3
                {
                OFFSET 2.210 -0.000 0.000
                CHANNELS 6 Xposition Yposition Zposition Zrotation Xrotation Yrotation
                  JOINT LeftHandRing4
                  {
                  OFFSET 1.800 -0.000 0.000
                  CHANNELS 6 Xposition Yposition Zposition Zrotation Xrotation Yrotation
                  }
                }
              }
            }
            JOINT LeftHandPinky1
            {
            OFFSET 9.350 0.660 -2.720
            CHANNELS 6 Xposition Yposition Zposition Zrotation Xrotation Yrotation
              JOINT LeftHandPinky2
              {
              OFFSET 1.630 -0.000 0.000
              CHANNELS 6 Xposition Yposition Zposition Zrotation Xrotation Yrotation
                JOINT LeftHandPinky3
                {
                OFFSET 1.710 -0.000 0.000
                CHANNELS 6 Xposition Yposition Zposition Zrotation Xrotation Yrotation
                  JOINT LeftHandPinky4
                  {
                  OFFSET 1.800 -0.000 0.000
                  CHANNELS 6 Xposition Yposition Zposition Zrotation Xrotation Yrotation
                  }
                }
              }
            }
          }
        }
      }
    }
    JOINT RightShoulder
    {
      OFFSET -0.000 37.282 0.000
      CHANNELS 6 Xposition Yposition Zposition Zrotation Xrotation Yrotation
      JOINT RightArm
      {
        OFFSET -18.490 0.000 -0.000
        CHANNELS 6 Xposition Yposition Zposition Zrotation Xrotation Yrotation
        JOINT RightForeArm
        {
          OFFSET -21.116 0.000 0.000
          CHANNELS 6 Xposition Yposition Zposition Zrotation Xrotation Yrotation
          JOINT RightHand
          {
            OFFSET -22.105 0.000 -0.000
            CHANNELS 6 Xposition Yposition Zposition Zrotation Xrotation Yrotation
            JOINT RightHandThumb1
            {
            OFFSET -4.970 -0.620 3.390
            CHANNELS 6 Xposition Yposition Zposition Zrotation Xrotation Yrotation
              JOINT RightHandThumb2
              {
              OFFSET -2.150 0.000 0.000
              CHANNELS 6 Xposition Yposition Zposition Zrotation Xrotation Yrotation
                JOINT RightHandThumb3
                {
                OFFSET -2.200 0.000 0.000
                CHANNELS 6 Xposition Yposition Zposition Zrotation Xrotation Yrotation
                  JOINT RightHandThumb4
                  {
                  OFFSET -1.700 0.000 0.000
                  CHANNELS 6 Xposition Yposition Zposition Zrotation Xrotation Yrotation
                  }
                }
              }
            }
            JOINT RightHandIndex1
            {
            OFFSET -8.730 0.680 2.070
            CHANNELS 6 Xposition Yposition Zposition Zrotation Xrotation Yrotation
              JOINT RightHandIndex2
              {
              OFFSET -2.670 0.000 0.000
              CHANNELS 6 Xposition Yposition Zposition Zrotation Xrotation Yrotation
                JOINT RightHandIndex3
                {
                OFFSET -2.130 0.000 0.000
                CHANNELS 6 Xposition Yposition Zposition Zrotation Xrotation Yrotation
                  JOINT RightHandIndex4
                  {
                  OFFSET -1.800 0.000 0.000
                  CHANNELS 6 Xposition Yposition Zposition Zrotation Xrotation Yrotation
                  }
                }
              }
            }
            JOINT RightHandMiddle1
            {
            OFFSET -9.220 0.670 0.550
            CHANNELS 6 Xposition Yposition Zposition Zrotation Xrotation Yrotation
              JOINT RightHandMiddle2
              {
              OFFSET -2.660 0.000 0.000
              CHANNELS 6 Xposition Yposition Zposition Zrotation Xrotation Yrotation
                JOINT RightHandMiddle3
                {
                OFFSET -2.280 0.000 0.000
                CHANNELS 6 Xposition Yposition Zposition Zrotation Xrotation Yrotation
                  JOINT RightHandMiddle4
                  {
                  OFFSET -1.500 0.000 0.000
                  CHANNELS 6 Xposition Yposition Zposition Zrotation Xrotation Yrotation
                  }
                }
              }
            }
            JOINT RightHandRing1
            {
            OFFSET -9.250 0.670 -1.130
            CHANNELS 6 Xposition Yposition Zposition Zrotation Xrotation Yrotation
              JOINT RightHandRing2
              {
              OFFSET -2.470 0.000 0.000
              CHANNELS 6 Xposition Yposition Zposition Zrotation Xrotation Yrotation
                JOINT RightHandRing3
                {
                OFFSET -2.210 0.000 0.000
                CHANNELS 6 Xposition Yposition Zposition Zrotation Xrotation Yrotation
                  JOINT RightHandRing4
                  {
                  OFFSET -1.800 0.000 0.000
                  CHANNELS 6 Xposition Yposition Zposition Zrotation Xrotation Yrotation
                  }
                }
              }
            }
            JOINT RightHandPinky1
            {
            OFFSET -9.350 0.660 -2.720
            CHANNELS 6 Xposition Yposition Zposition Zrotation Xrotation Yrotation
              JOINT RightHandPinky2
              {
              OFFSET -1.630 0.000 0.000
              CHANNELS 6 Xposition Yposition Zposition Zrotation Xrotation Yrotation
                JOINT RightHandPinky3
                {
                OFFSET -1.710 0.000 0.000
                CHANNELS 6 Xposition Yposition Zposition Zrotation Xrotation Yrotation
                  JOINT RightHandPinky4
                  {
                  OFFSET -1.800 0.000 0.000
                  CHANNELS 6 Xposition Yposition Zposition Zrotation Xrotation Yrotation
                  }
                }
              }
            }
          }
        }
      }
    }
    JOINT Neck
    {
      OFFSET -0.000 37.282 0.000
      CHANNELS 6 Xposition Yposition Zposition Zrotation Xrotation Yrotation
      JOINT Head
      {
        OFFSET -0.000 17.875 -0.000
        CHANNELS 6 Xposition Yposition Zposition Zrotation Xrotation Yrotation
        End Site
        {
          OFFSET -0.000 0.072 -0.000
        }
      }
    }
  }
}
MOTION
Frames:	6
Frame Time:	0.0333333
0.538285 21.274 -231.578 3.26326 30.7866 -4.43798 7.56414 -6.19881 2.79453 -16.7141 -48.8588 -6.57117 -1.25729e-06 -42.2525 4.76837e-05 13.8206 26.552 2.14749e-06 2.98023e-06 -43.3254 -4.76837e-05 1.22233 -8.55483 0.807984 -7.60251 -5.37311 4.37975 -0.777729 -24.5549 0.0146776 -4.47035e-06 -43.8409 0 20.1147 18.2889 4.94558e-06 2.98023e-06 -44.5146 2.38419e-05 -13.6555 -58.4069 -15.4616 1.49012e-06 5.4212 -5.42121 -0.242789 -27.2887 1.37269 -4.47035e-06 37.2822 2.38419e-05 -30.1614 1.15259e-05 1.69644 16.1404 -2.98023e-06 0 -38.2914 41.5848 14.8973 21.1322 0 2.38419e-05 -8.64706e-05 -6.8302e-06 -87.7401 21.7444 -2.38419e-05 -2.98023e-06 4.92426 -0.323744 -30.1475 0.0062 0.0497 0.0339 0 0 0 0 0.0215 0 0 0 0 0 0.022 0 0 0 0 0 0.017 0 0 0 0 -0.0068 0.0873 0.0207 0 0 0 0 0.0267 0 0 0 0 0 0.0213 0 0 0 0 0 0.018 0 0 0 0 -0.0067 0.0922 0.0055 0 0 0 0 0.0266 0 0 0 0 0 0.0228 0 0 0 0 0 0.015 0 0 0 0 -0.0067 0.0925 -0.0113 0 0 0 0 0.0247 0 0 0 0 0 0.0221 0 0 0 0 0 0.018 0 0 0 0 -0.0066 0.0935 -0.0272 0 0 0 0 0.0163 0 0 0 0 0 0.0171 0 0 0 0 0 0.018 0 0 0 0 -4.47035e-06 37.2822 2.38419e-05 32.9168 -2.98821e-06 -1.39129 -19.6797 -8.9407e-06 0 23.6036 25.0522 19.4541 -20.8107 0 0 -1.41718e-06 4.74478e-06 123.26 -23.0954 0 3.57628e-05 -10.3214 0.288578 25.5933 -0.0062 0.0497 0.0339 0 0 0 0 0.0215 0 0 0 0 0 0.022 0 0 0 0 0 0.017 0 0 0 0 0.0068 0.0873 0.0207 0 0 0 0 0.0267 0 0 0 0 0 0.0213 0 0 0 0 0 0.018 0 0 0 0 0.0067 0.0922 0.0055 0 0 0 0 0.0266 0 0 0 0 0 0.0228 0 0 0 0 0 0.015 0 0 0 0 0.0067 0.0925 -0.0113 0 0 0 0 0.0247 0 0 0 0 0 0.0221 0 0 0 0 0 0.018 0 0 0 0 0.0066 0.0935 -0.0272 0 0 0 0 0.0163 0 0 0 0 0 0.0171 0 0 0 0 0 0.018 0 0 0 0 -4.47035e-06 37.2822 2.38419e-05 7.21039 4.3675 -0.551995 -1.11759e-06 18.2017 7.15256e-05 6.69679e-06 -1.19528e-05 4.26887e-07 
0.546441 21.4476 -231.743 2.87264 31.5523 -4.00204 7.6952 -6.16598 2.87955 -17.2758 -50.6511 -7.48348 1.81608e-06 -41.9758 7.15256e-05 14.3539 28.2985 2.42414e-06 -7.45058e-07 -43.8466 -4.76837e-05 1.14981 -11.2208 0.788451 -7.77679 -5.38123 4.56676 -1.56141 -24.0471 0.748109 -2.98023e-06 -43.0751 0 21.9202 15.2301 2.65455e-06 0 -44.7555 2.38419e-05 -14.0184 -57.7457 -15.9313 0 5.39265 -5.39265 -0.148051 -28.1794 1.53587 -2.23517e-06 37.2822 4.76837e-05 -29.3191 1.28066e-05 2.26638 16.0473 -2.38419e-05 4.76837e-05 -37.9478 40.2954 14.9887 21.071 -1.19209e-05 -2.38419e-05 0.000456882 1.70755e-06 -88.7151 22.7756 1.19209e-05 -5.96046e-06 5.52636 -0.347487 -26.7827 0.0062 0.0497 0.0339 0 0 0 0 0.0215 0 0 0 0 0 0.022 0 0 0 0 0 0.017 0 0 0 0 -0.0068 0.0873 0.0207 0 0 0 0 0.0267 0 0 0 0 0 0.0213 0 0 0 0 0 0.018 0 0 0 0 -0.0067 0.0922 0.0055 0 0 0 0 0.0266 0 0 0 0 0 0.0228 0 0 0 0 0 0.015 0 0 0 0 -0.0067 0.0925 -0.0113 0 0 0 0 0.0247 0 0 0 0 0 0.0221 0 0 0 0 0 0.018 0 0 0 0 -0.0066 0.0935 -0.0272 0 0 0 0 0.0163 0 0 0 0 0 0.0171 0 0 0 0 0 0.018 0 0 0 0 -2.23517e-06 37.2822 4.76837e-05 32.9284 -1.70755e-06 -1.83676 -19.799 0 -4.76837e-05 24.6361 26.2482 21.379 -21.1736 0 -2.38419e-05 -2.92993e-06 1.10526e-05 119.694 -23.5726 -5.96046e-06 1.19209e-05 -8.07359 0.290548 23.7017 -0.0062 0.0497 0.0339 0 0 0 0 0.0215 0 0 0 0 0 0.022 0 0 0 0 0 0.017 0 0 0 0 0.0068 0.0873 0.0207 0 0 0 0 0.0267 0 0 0 0 0 0.0213 0 0 0 0 0 0.018 0 0 0 0 0.0067 0.0922 0.0055 0 0 0 0 0.0266 0 0 0 0 0 0.0228 0 0 0 0 0 0.015 0 0 0 0 0.0067 0.0925 -0.0113 0 0 0 0 0.0247 0 0 0 0 0 0.0221 0 0 0 0 0 0.018 0 0 0 0 0.0066 0.0935 -0.0272 0 0 0 0 0.0163 0 0 0 0 0 0.0171 0 0 0 0 0 0.018 0 0 0 0 -2.23517e-06 37.2822 4.76837e-05 7.54615 4.63991 -0.613962 -3.53903e-06 18.0696 -2.38419e-05 9.28479e-06 -1.19528e-05 2.13443e-07 
0.381446 21.671 -231.722 2.36218 32.0069 -3.65909 7.65927 -6.03138 3.00961 -14.9107 -50.5751 -6.05749 1.86265e-07 -42.5167 0 12.622 28.0159 9.67101e-07 -1.49012e-06 -43.6476 4.76837e-05 1.06522 -14.882 0.75628 -7.79655 -5.50433 4.64869 -1.88034 -23.6509 0.742244 -2.98023e-06 -42.5034 -2.38419e-05 23.0581 13.4425 0 -2.98023e-06 -44.9607 0 -14.2495 -56.8892 -16.2333 1.49012e-06 5.35449 -5.35445 -0.0496997 -28.8521 1.76785 -4.47035e-06 37.2822 4.76837e-05 -28.5308 1.17394e-05 2.82573 15.9761 -8.9407e-06 -4.76837e-05 -37.2465 38.6935 14.7254 20.9478 2.38419e-05 4.76837e-05 -0.00148618 -5.1229e-06 -89.8025 23.5092 1.19209e-05 1.78814e-05 5.62707 -0.289879 -24.0405 0.0062 0.0497 0.0339 0 0 0 0 0.0215 0 0 0 0 0 0.022 0 0 0 0 0 0.017 0 0 0 0 -0.0068 0.0873 0.0207 0 0 0 0 0.0267 0 0 0 0 0 0.0213 0 0 0 0 0 0.018 0 0 0 0 -0.0067 0.0922 0.0055 0 0 0 0 0.0266 0 0 0 0 0 0.0228 0 0 0 0 0 0.015 0 0 0 0 -0.0067 0.0925 -0.0113 0 0 0 0 0.0247 0 0 0 0 0 0.0221 0 0 0 0 0 0.018 0 0 0 0 -0.0066 0.0935 -0.0272 0 0 0 0 0.0163 0 0 0 0 0 0.0171 0 0 0 0 0 0.018 0 0 0 0 -4.47035e-06 37.2822 4.76837e-05 33.3046 -3.84198e-06 -2.25957 -19.9762 2.98023e-06 0 25.3352 28.228 22.4697 -21.4733 -5.96046e-06 2.38419e-05 -1.54784e-05 8.82162e-06 113.29 -23.1298 -5.96046e-06 -1.19209e-05 -6.27642 0.282515 23.9601 -0.0062 0.0497 0.0339 0 0 0 0 0.0215 0 0 0 0 0 0.022 0 0 0 0 0 0.017 0 0 0 0 0.0068 0.0873 0.0207 0 0 0 0 0.0267 0 0 0 0 0 0.0213 0 0 0 0 0 0.018 0 0 0 0 0.0067 0.0922 0.0055 0 0 0 0 0.0266 0 0 0 0 0 0.0228 0 0 0 0 0 0.015 0 0 0 0 0.0067 0.0925 -0.0113 0 0 0 0 0.0247 0 0 0 0 0 0.0221 0 0 0 0 0 0.018 0 0 0 0 0.0066 0.0935 -0.0272 0 0 0 0 0.0163 0 0 0 0 0 0.0171 0 0 0 0 0 0.018 0 0 0 0 -4.47035e-06 37.2822 4.76837e-05 8.06045 4.9888 -0.705569 7.10133e-07 17.8716 -7.15256e-05 6.91023e-06 -7.68396e-06 -8.53774e-07 
0.124748 22.0359 -231.437 1.89243 31.9708 -3.22457 7.68299 -6.08798 3.05917 -12.8772 -49.8411 -4.13398 2.6077e-06 -43.0272 0 11.5107 27.5133 3.1286e-06 -1.49012e-06 -43.4489 -2.38419e-05 0.992796 -15.5297 0.721113 -7.81313 -5.51038 4.74451 -0.911774 -24.78 0.147174 -2.98023e-06 -42.7352 2.38419e-05 22.6339 16.2377 3.55698e-06 0 -45.0272 0 -14.7771 -56.3333 -16.8756 -7.45058e-07 5.2946 -5.29456 -0.0552959 -29.2006 1.85376 -7.45058e-07 37.2822 -4.76837e-05 -28.2506 1.17394e-05 3.53615 16.0985 -2.98023e-06 0 -35.5739 36.6398 12.1438 20.8676 0 -2.38419e-05 0.00017747 -8.4454e-06 -91.5653 24.1479 1.19209e-05 2.98023e-06 5.50511 -0.217959 -20.7437 0.0062 0.0497 0.0339 0 0 0 0 0.0215 0 0 0 0 0 0.022 0 0 0 0 0 0.017 0 0 0 0 -0.0068 0.0873 0.0207 0 0 0 0 0.0267 0 0 0 0 0 0.0213 0 0 0 0 0 0.018 0 0 0 0 -0.0067 0.0922 0.0055 0 0 0 0 0.0266 0 0 0 0 0 0.0228 0 0 0 0 0 0.015 0 0 0 0 -0.0067 0.0925 -0.0113 0 0 0 0 0.0247 0 0 0 0 0 0.0221 0 0 0 0 0 0.018 0 0 0 0 -0.0066 0.0935 -0.0272 0 0 0 0 0.0163 0 0 0 0 0 0.0171 0 0 0 0 0 0.018 0 0 0 0 -7.45058e-07 37.2822 -4.76837e-05 33.8327 -4.26887e-06 -2.82246 -20.1646 -2.08616e-05 -2.38419e-05 25.8872 30.3216 21.8324 -21.6002 5.96046e-06 0 -1.10094e-06 6.92212e-06 108.074 -23.5794 -5.96046e-06 0 -7.19486 0.0709031 29.565 -0.0062 0.0497 0.0339 0 0 0 0 0.0215 0 0 0 0 0 0.022 0 0 0 0 0 0.017 0 0 0 0 0.0068 0.0873 0.0207 0 0 0 0 0.0267 0 0 0 0 0 0.0213 0 0 0 0 0 0.018 0 0 0 0 0.0067 0.0922 0.0055 0 0 0 0 0.0266 0 0 0 0 0 0.0228 0 0 0 0 0 0.015 0 0 0 0 0.0067 0.0925 -0.0113 0 0 0 0 0.0247 0 0 0 0 0 0.0221 0 0 0 0 0 0.018 0 0 0 0 0.0066 0.0935 -0.0272 0 0 0 0 0.0163 0 0 0 0 0 0.0171 0 0 0 0 0 0.018 0 0 0 0 -7.45058e-07 37.2822 -4.76837e-05 8.56333 5.53145 -0.83158 -5.7742e-06 17.5574 0 6.32326e-06 -1.10991e-05 2.13443e-07 
-0.163895 22.3489 -231.082 1.43045 31.7907 -2.73358 7.6803 -6.13244 3.13668 -11.1291 -48.7729 -2.7493 6.70552e-06 -43.3096 0 10.468 26.8385 4.78421e-07 2.98023e-06 -43.2499 0 1.02288 -15.146 0.755916 -7.81256 -5.54128 4.77862 -0.465073 -25.2091 -0.660619 -1.49012e-06 -42.9201 -4.76837e-05 22.7988 17.9738 2.69273e-06 2.98023e-06 -45.0724 2.38419e-05 -15.2989 -55.7637 -17.5038 7.45058e-07 5.25448 -5.25448 -0.118027 -29.4065 1.86067 -3.35276e-06 37.2822 0 -27.9982 1.34469e-05 4.1954 16.2588 1.19209e-05 2.38419e-05 -33.9632 35.7189 7.75003 21.2313 -2.38419e-05 2.38419e-05 -5.47525e-05 -6.88345e-06 -91.8471 23.9158 1.19209e-05 0 5.19078 -0.149235 -19.2018 0.0062 0.0497 0.0339 0 0 0 0 0.0215 0 0 0 0 0 0.022 0 0 0 0 0 0.017 0 0 0 0 -0.0068 0.0873 0.0207 0 0 0 0 0.0267 0 0 0 0 0 0.0213 0 0 0 0 0 0.018 0 0 0 0 -0.0067 0.0922 0.0055 0 0 0 0 0.0266 0 0 0 0 0 0.0228 0 0 0 0 0 0.015 0 0 0 0 -0.0067 0.0925 -0.0113 0 0 0 0 0.0247 0 0 0 0 0 0.0221 0 0 0 0 0 0.018 0 0 0 0 -0.0066 0.0935 -0.0272 0 0 0 0 0.0163 0 0 0 0 0 0.0171 0 0 0 0 0 0.018 0 0 0 0 -3.35276e-06 37.2822 0 34.2049 -2.56132e-06 -3.35772 -20.3085 2.98023e-06 -2.38419e-05 26.5255 32.6999 21.1355 -21.7238 -1.19209e-05 -2.38419e-05 1.34947e-05 1.6851e-06 101.232 -23.7389 -1.19209e-05 1.19209e-05 -9.83401 -0.447636 41.0487 -0.0062 0.0497 0.0339 0 0 0 0 0.0215 0 0 0 0 0 0.022 0 0 0 0 0 0.017 0 0 0 0 0.0068 0.0873 0.0207 0 0 0 0 0.0267 0 0 0 0 0 0.0213 0 0 0 0 0 0.018 0 0 0 0 0.0067 0.0922 0.0055 0 0 0 0 0.0266 0 0 0 0 0 0.0228 0 0 0 0 0 0.015 0 0 0 0 0.0067 0.0925 -0.0113 0 0 0 0 0.0247 0 0 0 0 0 0.0221 0 0 0 0 0 0.018 0 0 0 0 0.0066 0.0935 -0.0272 0 0 0 0 0.0163 0 0 0 0 0 0.0171 0 0 0 0 0 0.018 0 0 0 0 -3.35276e-06 37.2822 0 9.04948 6.15229 -0.977896 0 17.2738 -4.76837e-05 1.31535e-05 -9.39151e-06 0 
-0.596834 22.581 -230.418 0.945511 31.1241 -2.34617 7.64517 -6.16893 3.22015 -9.55954 -45.4299 -1.85826 3.72529e-06 -43.795 2.38419e-05 10.1321 23.5699 1.39723e-06 -1.49012e-06 -42.2742 0 1.07724 -12.9199 0.7844 -7.76796 -5.59791 4.70726 0.130316 -25.3111 -2.38587 2.98023e-06 -43.6213 0 22.7721 20.9722 3.65738e-06 0 -45.0933 -2.38419e-05 -15.8489 -56.0051 -18.202 -1.49012e-06 5.24227 -5.24228 -0.210519 -29.3112 1.90892 -2.65427e-06 37.2822 -7.15256e-05 -27.4696 8.53773e-06 4.94444 16.3183 -1.19209e-05 2.38419e-05 -33.0733 33.2425 4.68851 20.7658 -5.96046e-06 -2.38419e-05 -1.35995e-07 -3.67163e-06 -94.2424 24.1055 -1.19209e-05 -4.74975e-06 4.50185 -0.0955756 -18.743 0.0062 0.0497 0.0339 0 0 0 0 0.0215 0 0 0 0 0 0.022 0 0 0 0 0 0.017 0 0 0 0 -0.0068 0.0873 0.0207 0 0 0 0 0.0267 0 0 0 0 0 0.0213 0 0 0 0 0 0.018 0 0 0 0 -0.0067 0.0922 0.0055 0 0 0 0 0.0266 0 0 0 0 0 0.0228 0 0 0 0 0 0.015 0 0 0 0 -0.0067 0.0925 -0.0113 0 0 0 0 0.0247 0 0 0 0 0 0.0221 0 0 0 0 0 0.018 0 0 0 0 -0.0066 0.0935 -0.0272 0 0 0 0 0.0163 0 0 0 0 0 0.0171 0 0 0 0 0 0.018 0 0 0 0 -2.65427e-06 37.2822 -7.15256e-05 34.4038 -6.83019e-06 -3.95248 -20.4046 0 -2.38419e-05 28.6046 34.7266 17.2164 -21.6202 1.19209e-05 4.76837e-05 0.000218151 1.52979e-05 93.1113 -22.2046 0 0 -4.81603 0.0701516 41.4397 -0.0062 0.0497 0.0339 0 0 0 0 0.0215 0 0 0 0 0 0.022 0 0 0 0 0 0.017 0 0 0 0 0.0068 0.0873 0.0207 0 0 0 0 0.0267 0 0 0 0 0 0.0213 0 0 0 0 0 0.018 0 0 0 0 0.0067 0.0922 0.0055 0 0 0 0 0.0266 0 0 0 0 0 0.0228 0 0 0 0 0 0.015 0 0 0 0 0.0067 0.0925 -0.0113 0 0 0 0 0.0247 0 0 0 0 0 0.0221 0 0 0 0 0 0.018 0 0 0 0 0.0066 0.0935 -0.0272 0 0 0 0 0.0163 0 0 0 0 0 0.0171 0 0 0 0 0 0.018 0 0 0 0 -2.65427e-06 37.2822 -7.15256e-05 9.9079 6.93018 -1.20737 0 17.0641 2.38419e-05 8.40433e-06 -8.53774e-06 -1.06722e-07 
